# xmcd CD database file
#
# Track frame offsets:
#	150
#	27276
#	59044
#	90789
#	114477
#	148876
#	189462
#	214375
#	261408
#	292442
#
# Disc length: 4381 seconds
#
# Revision: 0
# Processed by: cddbd v1.5.1PL0 Copyright (c) Steve Scherf et al.
# Submitted via: CDex 1.51
#
DISCID=a4111b0a
DTITLE=Rus Nerwich - As Above So Below
DYEAR=2004
DGENRE=Jazz
TTITLE0=Blues For Louis
TTITLE1=Knowers Ark
TTITLE2=Nikki's Waltz
TTITLE3=You Are To Me
TTITLE4=Y'did Nefesh
TTITLE5=There Are No Butterflies In The Ghetto
TTITLE6=Shalom Aleichem
TTITLE7=Tales Of Power
TTITLE8=Zahava
TTITLE9=Yesterday's Tears
EXTD=YEAR: 2004
EXTT0=
EXTT1=
EXTT2=
EXTT3=
EXTT4=
EXTT5=
EXTT6=
EXTT7=
EXTT8=
EXTT9=
PLAYORDER=
